      <svg xmlns="http://www.w3.org/2000/svg" width="128" height="36">
         <defs>
            <style type="text/css">
               @namespace "http://www.w3.org/2000/svg";
               .line                 {fill: none; stroke: #331100;}
               .bold-line            {stroke: #140700; shape-rendering: crispEdges; stroke-width:
               2; }
               .thin-line            {stroke: #1F0A00; shape-rendering: crispEdges}
               .filled               {fill: #331100; stroke: none;}
               text.terminal         {font-family: Verdana, Sans-serif;
               font-size: 12px;
               fill: #140700;
               font-weight: bold;
               }
               text.nonterminal      {font-family: Verdana, Sans-serif;
               font-size: 12px;
               fill: #1A0900;
               }
               text.regexp           {font-family: Verdana, Sans-serif;
               font-size: 12px;
               fill: #1F0A00;
               }
               rect, circle, polygon {fill: #331100; stroke: #331100;}
               rect.terminal         {fill: #FF884D; stroke: #331100;}
               rect.nonterminal      {fill: #FFBF9E; stroke: #331100;}
               rect.text             {fill: none; stroke: none;}    
               polygon.regexp        {fill: #FFDAC7; stroke: #331100;}
               
            </style>
         </defs>
         <polygon points="9 17 1 13 1 21"/>
         <polygon points="17 17 9 13 9 21"/>
         <polygon points="31 19 38 3 94 3 101 19 94 35 38 35"/>
         <polygon points="29 17 36 1 92 1 99 17 92 33 36 33" class="regexp"/>
         <text class="regexp" x="44" y="21">[^\{}]</text>
         <svg:path xmlns:svg="http://www.w3.org/2000/svg" class="line" d="m17 17 h2 m0 0 h10 m70 0 h10 m3 0 h-3"/>
         <polygon points="119 17 127 13 127 21"/>
         <polygon points="119 17 111 13 111 21"/>
      </svg>

