<?xml version="1.0" encoding="UTF-8" standalone="no"?>
<!DOCTYPE svg PUBLIC "-//W3C//DTD SVG 1.0//EN" "http://www.w3.org/TR/2001/PR-SVG-20010719/DTD/svg10.dtd">
<svg width="35cm" height="24cm" viewBox="-1557 -2851 690 470" xmlns="http://www.w3.org/2000/svg" xmlns:xlink="http://www.w3.org/1999/xlink">
  <g>
    <rect style="fill: #ffdac7" x="-1526.22" y="-2691.08" width="259" height="145"/>
    <rect style="fill: none; fill-opacity:0; stroke-width: 2; stroke: #000000" x="-1526.22" y="-2691.08" width="259" height="145"/>
  </g>
  <g>
    <rect style="fill: #ffbf9e" x="-1532.22" y="-2849.08" width="657" height="40"/>
    <line style="fill: none; fill-opacity:0; stroke-width: 2; stroke: #000000" x1="-875.222" y1="-2849.08" x2="-1532.22" y2="-2849.08"/>
    <line style="fill: none; fill-opacity:0; stroke-width: 2; stroke: #000000" x1="-875.222" y1="-2809.08" x2="-1532.22" y2="-2809.08"/>
  </g>
  <text font-size="14.6756" style="fill: #000000;text-anchor:start;font-family:monospace;font-style:normal;font-weight:normal" x="-1532.22" y="-2825.48">
    <tspan x="-1532.22" y="-2825.48">&lt;form&gt;\n{{FNAME}}:&lt;br&gt;\n&lt;input type="text" name="firstname"&gt;...</tspan>
  </text>
  <g>
    <rect style="fill: #ff884d" x="-1526.22" y="-2776.08" width="122" height="53"/>
    <rect style="fill: none; fill-opacity:0; stroke-width: 2; stroke: #000000" x="-1526.22" y="-2776.08" width="122" height="53"/>
  </g>
  <text font-size="15.24" style="fill: #000000;text-anchor:start;font-family:sans-serif;font-style:normal;font-weight:normal" x="-1499.22" y="-2744.58">
    <tspan x="-1499.22" y="-2744.58">Compile</tspan>
  </text>
  <g>
    <rect style="fill: #ffdac7" x="-1500" y="-2680" width="100" height="35"/>
    <rect style="fill: none; fill-opacity:0; stroke-width: 2; stroke: #000000" x="-1500" y="-2680" width="100" height="35"/>
  </g>
  <text font-size="14.6756" style="fill: #000000;text-anchor:start;font-family:monospace;font-style:normal;font-weight:normal" x="-1480" y="-2660">
    <tspan x="-1480" y="-2660">&lt;form&gt;\n</tspan>
  </text>
  <g>
    <rect style="fill: #ffdac7" x="-1500" y="-2640" width="126.9" height="35"/>
    <rect style="fill: none; fill-opacity:0; stroke-width: 2; stroke: #000000" x="-1500" y="-2640" width="126.9" height="35"/>
  </g>
  <text font-size="14.6756" style="fill: #000000;text-anchor:start;font-family:monospace;font-style:normal;font-weight:normal" x="-1480" y="-2620">
    <tspan x="-1480" y="-2620">{{FNAME}}</tspan>
  </text>
  <g>
    <rect style="fill: #ffdac7" x="-1500" y="-2600" width="211.8" height="35"/>
    <rect style="fill: none; fill-opacity:0; stroke-width: 2; stroke: #000000" x="-1500" y="-2600" width="211.8" height="35"/>
  </g>
  <text font-size="14.6756" style="fill: #000000;text-anchor:start;font-family:monospace;font-style:normal;font-weight:normal" x="-1480" y="-2580">
    <tspan x="-1480" y="-2580">:&lt;br&gt;\n&lt;input type=...</tspan>
  </text>
  <g>
    <rect style="fill: #ff884d" x="-1527.28" y="-2511.68" width="122" height="53"/>
    <rect style="fill: none; fill-opacity:0; stroke-width: 2; stroke: #000000" x="-1527.28" y="-2511.68" width="122" height="53"/>
  </g>
  <text font-size="15.24" style="fill: #000000;text-anchor:start;font-family:sans-serif;font-style:normal;font-weight:normal" x="-1500.28" y="-2480.18">
    <tspan x="-1500.28" y="-2480.18">Render</tspan>
  </text>
  <g>
    <rect style="fill: #ffbf9e" x="-1525.12" y="-2421.68" width="657" height="40"/>
    <line style="fill: none; fill-opacity:0; stroke-width: 2; stroke: #000000" x1="-868.122" y1="-2421.68" x2="-1525.12" y2="-2421.68"/>
    <line style="fill: none; fill-opacity:0; stroke-width: 2; stroke: #000000" x1="-868.122" y1="-2381.68" x2="-1525.12" y2="-2381.68"/>
  </g>
  <text font-size="14.6756" style="fill: #000000;text-anchor:start;font-family:monospace;font-style:normal;font-weight:normal" x="-1520.8" y="-2398.08">
    <tspan x="-1520.8" y="-2398.08">&lt;form&gt;\nFirstname:&lt;br&gt;\n&lt;input type="text" name="firstname"&gt;...</tspan>
  </text>
  <g>
    <rect style="fill: #ffbf9e" x="-1248.22" y="-2515.08" width="167" height="59"/>
    <rect style="fill: none; fill-opacity:0; stroke-width: 2; stroke: #000000" x="-1248.22" y="-2515.08" width="167" height="59"/>
  </g>
  <text font-size="14.1111" style="fill: #000000;text-anchor:start;font-family:monospace;font-style:normal;font-weight:normal" x="-1243.18" y="-2489.18">
    <tspan x="-1243.18" y="-2489.18">FNAME="Firstname"</tspan>
    <tspan x="-1243.18" y="-2471.54">LNAME="Lastname"</tspan>
  </text>
  <g>
    <line style="fill: none; fill-opacity:0; stroke-width: 2; stroke: #000000" x1="-1463.22" y1="-2806.08" x2="-1463.9" y2="-2786.8"/>
    <polygon style="fill: #000000" points="-1464.17,-2779.31 -1468.81,-2789.48 -1463.9,-2786.8 -1458.82,-2789.12 "/>
    <polygon style="fill: none; fill-opacity:0; stroke-width: 2; stroke: #000000" points="-1464.17,-2779.31 -1468.81,-2789.48 -1463.9,-2786.8 -1458.82,-2789.12 "/>
  </g>
  <g>
    <line style="fill: none; fill-opacity:0; stroke-width: 2; stroke: #000000" x1="-1465.22" y1="-2723.08" x2="-1466.01" y2="-2704.37"/>
    <polygon style="fill: #000000" points="-1466.33,-2696.87 -1470.9,-2707.08 -1466.01,-2704.37 -1460.91,-2706.65 "/>
    <polygon style="fill: none; fill-opacity:0; stroke-width: 2; stroke: #000000" points="-1466.33,-2696.87 -1470.9,-2707.08 -1466.01,-2704.37 -1460.91,-2706.65 "/>
  </g>
  <g>
    <line style="fill: none; fill-opacity:0; stroke-width: 2; stroke: #000000" x1="-1466.22" y1="-2544.08" x2="-1466.27" y2="-2521.42"/>
    <polygon style="fill: #000000" points="-1466.28,-2513.92 -1471.26,-2523.93 -1466.27,-2521.42 -1461.26,-2523.91 "/>
    <polygon style="fill: none; fill-opacity:0; stroke-width: 2; stroke: #000000" points="-1466.28,-2513.92 -1471.26,-2523.93 -1466.27,-2521.42 -1461.26,-2523.91 "/>
  </g>
  <g>
    <line style="fill: none; fill-opacity:0; stroke-width: 2; stroke: #000000" x1="-1466.28" y1="-2458.68" x2="-1465.87" y2="-2434.15"/>
    <polygon style="fill: #000000" points="-1465.74,-2426.66 -1470.91,-2436.57 -1465.87,-2434.15 -1460.91,-2436.74 "/>
    <polygon style="fill: none; fill-opacity:0; stroke-width: 2; stroke: #000000" points="-1465.74,-2426.66 -1470.91,-2436.57 -1465.87,-2434.15 -1460.91,-2436.74 "/>
  </g>
  <g>
    <line style="fill: none; fill-opacity:0; stroke-width: 2; stroke: #000000" x1="-1248.22" y1="-2485.58" x2="-1395.55" y2="-2485.2"/>
    <polygon style="fill: #000000" points="-1403.05,-2485.19 -1393.06,-2490.21 -1395.55,-2485.2 -1393.04,-2480.21 "/>
    <polygon style="fill: none; fill-opacity:0; stroke-width: 2; stroke: #000000" points="-1403.05,-2485.19 -1393.06,-2490.21 -1395.55,-2485.2 -1393.04,-2480.21 "/>
  </g>
  <text font-size="15.24" style="fill: #000000;text-anchor:start;font-family:sans-serif;font-style:normal;font-weight:normal" x="-1248.94" y="-2520.12">
    <tspan x="-1248.94" y="-2520.12">Dictionary</tspan>
  </text>
  <g>
    <ellipse style="fill: #000000" cx="-1535.77" cy="-2771.2" rx="20" ry="20"/>
    <ellipse style="fill: none; fill-opacity:0; stroke-width: 2; stroke: #000000" cx="-1535.77" cy="-2771.2" rx="20" ry="20"/>
    <ellipse style="fill: none; fill-opacity:0; stroke-width: 2; stroke: #000000" cx="-1535.77" cy="-2771.2" rx="20" ry="20"/>
  </g>
  <text font-size="16.9333" style="fill: #ffffff;text-anchor:start;font-family:sans-serif;font-style:normal;font-weight:700" x="-1539.92" y="-2764.54">
    <tspan x="-1539.92" y="-2764.54">1</tspan>
  </text>
  <g>
    <ellipse style="fill: #000000" cx="-1529.66" cy="-2511.22" rx="20" ry="20"/>
    <ellipse style="fill: none; fill-opacity:0; stroke-width: 2; stroke: #000000" cx="-1529.66" cy="-2511.22" rx="20" ry="20"/>
    <ellipse style="fill: none; fill-opacity:0; stroke-width: 2; stroke: #000000" cx="-1529.66" cy="-2511.22" rx="20" ry="20"/>
  </g>
  <text font-size="16.9333" style="fill: #ffffff;text-anchor:start;font-family:sans-serif;font-style:normal;font-weight:700" x="-1533.81" y="-2504.56">
    <tspan x="-1533.81" y="-2504.56">2</tspan>
  </text>
</svg>
