      <svg xmlns="http://www.w3.org/2000/svg" width="198" height="140">
         <defs>
            <style type="text/css">
               @namespace "http://www.w3.org/2000/svg";
               .line                 {fill: none; stroke: #331100;}
               .bold-line            {stroke: #140700; shape-rendering: crispEdges; stroke-width:
               2; }
               .thin-line            {stroke: #1F0A00; shape-rendering: crispEdges}
               .filled               {fill: #331100; stroke: none;}
               text.terminal         {font-family: Verdana, Sans-serif;
               font-size: 12px;
               fill: #140700;
               font-weight: bold;
               }
               text.nonterminal      {font-family: Verdana, Sans-serif;
               font-size: 12px;
               fill: #1A0900;
               }
               text.regexp           {font-family: Verdana, Sans-serif;
               font-size: 12px;
               fill: #1F0A00;
               }
               rect, circle, polygon {fill: #331100; stroke: #331100;}
               rect.terminal         {fill: #FF884D; stroke: #331100;}
               rect.nonterminal      {fill: #FFBF9E; stroke: #331100;}
               rect.text             {fill: none; stroke: none;}    
               polygon.regexp        {fill: #FFDAC7; stroke: #331100;}
               
            </style>
         </defs>
         <polygon points="9 33 1 29 1 37"/>
         <polygon points="17 33 9 29 9 37"/>
         <polygon points="71 35 78 19 124 19 131 35 124 51 78 51"/>
         <polygon points="69 33 76 17 122 17 129 33 122 49 76 49" class="regexp"/>
         <text class="regexp" x="84" y="37">[A-Z]</text>
         <polygon points="71 79 78 63 124 63 131 79 124 95 78 95"/>
         <polygon points="69 77 76 61 122 61 129 77 122 93 76 93" class="regexp"/>
         <text class="regexp" x="84" y="81">[a-z]</text>
         <polygon points="71 123 78 107 124 107 131 123 124 139 78 139"/>
         <polygon points="69 121 76 105 122 105 129 121 122 137 76 137" class="regexp"/>
         <text class="regexp" x="84" y="125">[0-9]</text>
         <svg:path xmlns:svg="http://www.w3.org/2000/svg" class="line" d="m17 33 h2 m40 0 h10 m60 0 h10 m-100 0 h20 m80 0 h20 m-120 0 q10 0 10 10 m100 0 q0 -10 10 -10 m-110 10 v24 m100 0 v-24 m-100 24 q0 10 10 10 m80 0 q10 0 10 -10 m-90 10 h10 m60 0 h10 m-90 -10 v20 m100 0 v-20 m-100 20 v24 m100 0 v-24 m-100 24 q0 10 10 10 m80 0 q10 0 10 -10 m-90 10 h10 m60 0 h10 m-120 -88 l20 0 m-1 0 q-9 0 -9 -10 l0 -12 q0 -10 10 -10 m120 32 l20 0 m-20 0 q10 0 10 -10 l0 -12 q0 -10 -10 -10 m-120 0 h10 m0 0 h110 m23 32 h-3"/>
         <polygon points="189 33 197 29 197 37"/>
         <polygon points="189 33 181 29 181 37"/>
      </svg>

