      <svg xmlns="http://www.w3.org/2000/svg" width="748" height="192">
         <defs>
            <style type="text/css">
               @namespace "http://www.w3.org/2000/svg";
               .line                 {fill: none; stroke: #331100;}
               .bold-line            {stroke: #140700; shape-rendering: crispEdges; stroke-width:
               2; }
               .thin-line            {stroke: #1F0A00; shape-rendering: crispEdges}
               .filled               {fill: #331100; stroke: none;}
               text.terminal         {font-family: Verdana, Sans-serif;
               font-size: 12px;
               fill: #140700;
               font-weight: bold;
               }
               text.nonterminal      {font-family: Verdana, Sans-serif;
               font-size: 12px;
               fill: #1A0900;
               }
               text.regexp           {font-family: Verdana, Sans-serif;
               font-size: 12px;
               fill: #1F0A00;
               }
               rect, circle, polygon {fill: #331100; stroke: #331100;}
               rect.terminal         {fill: #FF884D; stroke: #331100;}
               rect.nonterminal      {fill: #FFBF9E; stroke: #331100;}
               rect.text             {fill: none; stroke: none;}    
               polygon.regexp        {fill: #FFDAC7; stroke: #331100;}
               
            </style>
         </defs>
         <polygon points="9 51 1 47 1 55"/>
         <polygon points="17 51 9 47 9 55"/>
         <rect x="71" y="3" width="24" height="32" rx="10"/>
         <rect x="69" y="1" width="24" height="32" class="terminal" rx="10"/>
         <text class="terminal" x="79" y="21">:</text>
         <a xmlns:xlink="http://www.w3.org/1999/xlink" xlink:href="#DictionaryName" xlink:title="DictionaryName">
            <rect x="135" y="37" width="118" height="32"/>
            <rect x="133" y="35" width="118" height="32" class="nonterminal"/>
            <text class="nonterminal" x="143" y="55">DictionaryName</text>
         </a>
         <rect x="51" y="115" width="30" height="32" rx="10"/>
         <rect x="49" y="113" width="30" height="32" class="terminal" rx="10"/>
         <text class="terminal" x="59" y="133">#</text>
         <rect x="101" y="115" width="70" height="32" rx="10"/>
         <rect x="99" y="113" width="70" height="32" class="terminal" rx="10"/>
         <text class="terminal" x="109" y="133">REPEAT</text>
         <a xmlns:xlink="http://www.w3.org/1999/xlink" xlink:href="#DictionaryName" xlink:title="DictionaryName">
            <rect x="191" y="115" width="118" height="32"/>
            <rect x="189" y="113" width="118" height="32" class="nonterminal"/>
            <text class="nonterminal" x="199" y="133">DictionaryName</text>
         </a>
         <rect x="329" y="115" width="38" height="32" rx="10"/>
         <rect x="327" y="113" width="38" height="32" class="terminal" rx="10"/>
         <text class="terminal" x="337" y="133">}}</text>
         <a xmlns:xlink="http://www.w3.org/1999/xlink" xlink:href="#Template" xlink:title="Template">
            <rect x="407" y="81" width="78" height="32"/>
            <rect x="405" y="79" width="78" height="32" class="nonterminal"/>
            <text class="nonterminal" x="415" y="99">Template</text>
         </a>
         <rect x="525" y="115" width="38" height="32" rx="10"/>
         <rect x="523" y="113" width="38" height="32" class="terminal" rx="10"/>
         <text class="terminal" x="533" y="133">{{</text>
         <rect x="583" y="115" width="28" height="32" rx="10"/>
         <rect x="581" y="113" width="28" height="32" class="terminal" rx="10"/>
         <text class="terminal" x="591" y="133">/</text>
         <rect x="631" y="115" width="70" height="32" rx="10"/>
         <rect x="629" y="113" width="70" height="32" class="terminal" rx="10"/>
         <text class="terminal" x="639" y="133">REPEAT</text>
         <rect x="51" y="159" width="26" height="32" rx="10"/>
         <rect x="49" y="157" width="26" height="32" class="terminal" rx="10"/>
         <text class="terminal" x="59" y="177">-</text>
         <a xmlns:xlink="http://www.w3.org/1999/xlink" xlink:href="#Comment" xlink:title="Comment">
            <rect x="97" y="159" width="80" height="32"/>
            <rect x="95" y="157" width="80" height="32" class="nonterminal"/>
            <text class="nonterminal" x="105" y="177">Comment</text>
         </a>
         <svg:path xmlns:svg="http://www.w3.org/2000/svg" class="line" d="m17 51 h2 m40 0 h10 m0 0 h34 m-64 0 l20 0 m-1 0 q-9 0 -9 -10 l0 -14 q0 -10 10 -10 m44 34 l20 0 m-20 0 q10 0 10 -10 l0 -14 q0 -10 -10 -10 m-44 0 h10 m24 0 h10 m20 34 h10 m118 0 h10 m0 0 h448 m-690 0 h20 m670 0 h20 m-710 0 q10 0 10 10 m690 0 q0 -10 10 -10 m-700 10 v58 m690 0 v-58 m-690 58 q0 10 10 10 m670 0 q10 0 10 -10 m-680 10 h10 m30 0 h10 m0 0 h10 m70 0 h10 m0 0 h10 m118 0 h10 m0 0 h10 m38 0 h10 m20 0 h10 m0 0 h88 m-118 0 l20 0 m-1 0 q-9 0 -9 -10 l0 -14 q0 -10 10 -10 m98 34 l20 0 m-20 0 q10 0 10 -10 l0 -14 q0 -10 -10 -10 m-98 0 h10 m78 0 h10 m20 34 h10 m38 0 h10 m0 0 h10 m28 0 h10 m0 0 h10 m70 0 h10 m-680 -10 v20 m690 0 v-20 m-690 20 v24 m690 0 v-24 m-690 24 q0 10 10 10 m670 0 q10 0 10 -10 m-680 10 h10 m26 0 h10 m0 0 h10 m80 0 h10 m0 0 h524 m23 -122 h-3"/>
         <polygon points="739 51 747 47 747 55"/>
         <polygon points="739 51 731 47 731 55"/>
      </svg>
