      <svg xmlns="http://www.w3.org/2000/svg" width="748" height="158">
         <defs>
            <style type="text/css">
               @namespace "http://www.w3.org/2000/svg";
               .line                 {fill: none; stroke: #331100;}
               .bold-line            {stroke: #140700; shape-rendering: crispEdges; stroke-width:
               2; }
               .thin-line            {stroke: #1F0A00; shape-rendering: crispEdges}
               .filled               {fill: #331100; stroke: none;}
               text.terminal         {font-family: Verdana, Sans-serif;
               font-size: 12px;
               fill: #140700;
               font-weight: bold;
               }
               text.nonterminal      {font-family: Verdana, Sans-serif;
               font-size: 12px;
               fill: #1A0900;
               }
               text.regexp           {font-family: Verdana, Sans-serif;
               font-size: 12px;
               fill: #1F0A00;
               }
               rect, circle, polygon {fill: #331100; stroke: #331100;}
               rect.terminal         {fill: #FF884D; stroke: #331100;}
               rect.nonterminal      {fill: #FFBF9E; stroke: #331100;}
               rect.text             {fill: none; stroke: none;}    
               polygon.regexp        {fill: #FFDAC7; stroke: #331100;}
               
            </style>
         </defs>
         <polygon points="9 17 1 13 1 21"/>
         <polygon points="17 17 9 13 9 21"/>
         <a xmlns:xlink="http://www.w3.org/1999/xlink" xlink:href="#DictionaryName" xlink:title="DictionaryName">
            <rect x="51" y="3" width="118" height="32"/>
            <rect x="49" y="1" width="118" height="32" class="nonterminal"/>
            <text class="nonterminal" x="59" y="21">DictionaryName</text>
         </a>
         <rect x="51" y="81" width="30" height="32" rx="10"/>
         <rect x="49" y="79" width="30" height="32" class="terminal" rx="10"/>
         <text class="terminal" x="59" y="99">#</text>
         <rect x="101" y="81" width="70" height="32" rx="10"/>
         <rect x="99" y="79" width="70" height="32" class="terminal" rx="10"/>
         <text class="terminal" x="109" y="99">REPEAT</text>
         <a xmlns:xlink="http://www.w3.org/1999/xlink" xlink:href="#DictionaryName" xlink:title="DictionaryName">
            <rect x="191" y="81" width="118" height="32"/>
            <rect x="189" y="79" width="118" height="32" class="nonterminal"/>
            <text class="nonterminal" x="199" y="99">DictionaryName</text>
         </a>
         <rect x="329" y="81" width="38" height="32" rx="10"/>
         <rect x="327" y="79" width="38" height="32" class="terminal" rx="10"/>
         <text class="terminal" x="337" y="99">}}</text>
         <a xmlns:xlink="http://www.w3.org/1999/xlink" xlink:href="#Template" xlink:title="Template">
            <rect x="407" y="47" width="78" height="32"/>
            <rect x="405" y="45" width="78" height="32" class="nonterminal"/>
            <text class="nonterminal" x="415" y="65">Template</text>
         </a>
         <rect x="525" y="81" width="38" height="32" rx="10"/>
         <rect x="523" y="79" width="38" height="32" class="terminal" rx="10"/>
         <text class="terminal" x="533" y="99">{{</text>
         <rect x="583" y="81" width="28" height="32" rx="10"/>
         <rect x="581" y="79" width="28" height="32" class="terminal" rx="10"/>
         <text class="terminal" x="591" y="99">/</text>
         <rect x="631" y="81" width="70" height="32" rx="10"/>
         <rect x="629" y="79" width="70" height="32" class="terminal" rx="10"/>
         <text class="terminal" x="639" y="99">REPEAT</text>
         <rect x="51" y="125" width="26" height="32" rx="10"/>
         <rect x="49" y="123" width="26" height="32" class="terminal" rx="10"/>
         <text class="terminal" x="59" y="143">-</text>
         <a xmlns:xlink="http://www.w3.org/1999/xlink" xlink:href="#Comment" xlink:title="Comment">
            <rect x="97" y="125" width="80" height="32"/>
            <rect x="95" y="123" width="80" height="32" class="nonterminal"/>
            <text class="nonterminal" x="105" y="143">Comment</text>
         </a>
         <svg:path xmlns:svg="http://www.w3.org/2000/svg" class="line" d="m17 17 h2 m20 0 h10 m118 0 h10 m0 0 h532 m-690 0 h20 m670 0 h20 m-710 0 q10 0 10 10 m690 0 q0 -10 10 -10 m-700 10 v58 m690 0 v-58 m-690 58 q0 10 10 10 m670 0 q10 0 10 -10 m-680 10 h10 m30 0 h10 m0 0 h10 m70 0 h10 m0 0 h10 m118 0 h10 m0 0 h10 m38 0 h10 m20 0 h10 m0 0 h88 m-118 0 l20 0 m-1 0 q-9 0 -9 -10 l0 -14 q0 -10 10 -10 m98 34 l20 0 m-20 0 q10 0 10 -10 l0 -14 q0 -10 -10 -10 m-98 0 h10 m78 0 h10 m20 34 h10 m38 0 h10 m0 0 h10 m28 0 h10 m0 0 h10 m70 0 h10 m-680 -10 v20 m690 0 v-20 m-690 20 v24 m690 0 v-24 m-690 24 q0 10 10 10 m670 0 q10 0 10 -10 m-680 10 h10 m26 0 h10 m0 0 h10 m80 0 h10 m0 0 h524 m23 -122 h-3"/>
         <polygon points="739 17 747 13 747 21"/>
         <polygon points="739 17 731 13 731 21"/>
      </svg>
