      <svg xmlns="http://www.w3.org/2000/svg" width="198" height="80">
         <defs>
            <style type="text/css">
               @namespace "http://www.w3.org/2000/svg";
               .line                 {fill: none; stroke: #331100;}
               .bold-line            {stroke: #140700; shape-rendering: crispEdges; stroke-width:
               2; }
               .thin-line            {stroke: #1F0A00; shape-rendering: crispEdges}
               .filled               {fill: #331100; stroke: none;}
               text.terminal         {font-family: Verdana, Sans-serif;
               font-size: 12px;
               fill: #140700;
               font-weight: bold;
               }
               text.nonterminal      {font-family: Verdana, Sans-serif;
               font-size: 12px;
               fill: #1A0900;
               }
               text.regexp           {font-family: Verdana, Sans-serif;
               font-size: 12px;
               fill: #1F0A00;
               }
               rect, circle, polygon {fill: #331100; stroke: #331100;}
               rect.terminal         {fill: #FF884D; stroke: #331100;}
               rect.nonterminal      {fill: #FFBF9E; stroke: #331100;}
               rect.text             {fill: none; stroke: none;}    
               polygon.regexp        {fill: #FFDAC7; stroke: #331100;}
               
            </style>
         </defs>
         <polygon points="9 17 1 13 1 21"/>
         <polygon points="17 17 9 13 9 21"/>
         <a xmlns:xlink="http://www.w3.org/1999/xlink" xlink:href="#UnicodeChar" xlink:title="UnicodeChar">
            <rect x="51" y="3" width="100" height="32"/>
            <rect x="49" y="1" width="100" height="32" class="nonterminal"/>
            <text class="nonterminal" x="59" y="21">UnicodeChar</text>
         </a>
         <rect x="51" y="47" width="46" height="32" rx="10"/>
         <rect x="49" y="45" width="46" height="32" class="terminal" rx="10"/>
         <text class="terminal" x="59" y="65">\{{</text>
         <svg:path xmlns:svg="http://www.w3.org/2000/svg" class="line" d="m17 17 h2 m20 0 h10 m100 0 h10 m-140 0 h20 m120 0 h20 m-160 0 q10 0 10 10 m140 0 q0 -10 10 -10 m-150 10 v24 m140 0 v-24 m-140 24 q0 10 10 10 m120 0 q10 0 10 -10 m-130 10 h10 m46 0 h10 m0 0 h54 m23 -44 h-3"/>
         <polygon points="189 17 197 13 197 21"/>
         <polygon points="189 17 181 13 181 21"/>
      </svg>
