      <svg xmlns="http://www.w3.org/2000/svg" width="382" height="112">
         <defs>
            <style type="text/css">
               @namespace "http://www.w3.org/2000/svg";
               .line                 {fill: none; stroke: #331100;}
               .bold-line            {stroke: #140700; shape-rendering: crispEdges; stroke-width:
               2; }
               .thin-line            {stroke: #1F0A00; shape-rendering: crispEdges}
               .filled               {fill: #331100; stroke: none;}
               text.terminal         {font-family: Verdana, Sans-serif;
               font-size: 12px;
               fill: #140700;
               font-weight: bold;
               }
               text.nonterminal      {font-family: Verdana, Sans-serif;
               font-size: 12px;
               fill: #1A0900;
               }
               text.regexp           {font-family: Verdana, Sans-serif;
               font-size: 12px;
               fill: #1F0A00;
               }
               rect, circle, polygon {fill: #331100; stroke: #331100;}
               rect.terminal         {fill: #FF884D; stroke: #331100;}
               rect.nonterminal      {fill: #FFBF9E; stroke: #331100;}
               rect.text             {fill: none; stroke: none;}    
               polygon.regexp        {fill: #FFDAC7; stroke: #331100;}
               
            </style>
         </defs>
         <polygon points="9 33 1 29 1 37"/>
         <polygon points="17 33 9 29 9 37"/>
         <a xmlns:xlink="http://www.w3.org/1999/xlink" xlink:href="#PlainText" xlink:title="PlainText">
            <rect x="91" y="19" width="76" height="32"/>
            <rect x="89" y="17" width="76" height="32" class="nonterminal"/>
            <text class="nonterminal" x="99" y="37">PlainText</text>
         </a>
         <rect x="91" y="63" width="38" height="32" rx="10"/>
         <rect x="89" y="61" width="38" height="32" class="terminal" rx="10"/>
         <text class="terminal" x="99" y="81">{{</text>
         <a xmlns:xlink="http://www.w3.org/1999/xlink" xlink:href="#Instruction" xlink:title="Instruction">
            <rect x="149" y="63" width="88" height="32"/>
            <rect x="147" y="61" width="88" height="32" class="nonterminal"/>
            <text class="nonterminal" x="157" y="81">Instruction</text>
         </a>
         <rect x="257" y="63" width="38" height="32" rx="10"/>
         <rect x="255" y="61" width="38" height="32" class="terminal" rx="10"/>
         <text class="terminal" x="265" y="81">}}</text>
         <svg:path xmlns:svg="http://www.w3.org/2000/svg" class="line" d="m17 33 h2 m60 0 h10 m76 0 h10 m0 0 h128 m-244 0 h20 m224 0 h20 m-264 0 q10 0 10 10 m244 0 q0 -10 10 -10 m-254 10 v24 m244 0 v-24 m-244 24 q0 10 10 10 m224 0 q10 0 10 -10 m-234 10 h10 m38 0 h10 m0 0 h10 m88 0 h10 m0 0 h10 m38 0 h10 m-264 -44 l20 0 m-1 0 q-9 0 -9 -10 l0 -12 q0 -10 10 -10 m264 32 l20 0 m-20 0 q10 0 10 -10 l0 -12 q0 -10 -10 -10 m-264 0 h10 m0 0 h254 m-304 32 h20 m304 0 h20 m-344 0 q10 0 10 10 m324 0 q0 -10 10 -10 m-334 10 v58 m324 0 v-58 m-324 58 q0 10 10 10 m304 0 q10 0 10 -10 m-314 10 h10 m0 0 h294 m23 -78 h-3"/>
         <polygon points="373 33 381 29 381 37"/>
         <polygon points="373 33 365 29 365 37"/>
      </svg>
